<svg width="185" height="581" viewBox="0 0 185 581" fill="none" xmlns="http://www.w3.org/2000/svg">
<g opacity="0.1">
<path d="M87.2161 468.127C77.7329 467.548 68.3899 465.552 59.4984 462.204C54.2609 460.22 49.2496 457.684 44.5494 454.639C39.9795 451.694 35.856 448.109 32.3054 443.993C28.7974 439.885 25.9907 435.228 23.9982 430.207C21.8953 424.816 20.8493 419.071 20.9173 413.285C20.8642 407.88 21.7603 402.507 23.5647 397.411C25.2676 392.694 27.7647 388.302 30.948 384.426C34.1854 380.551 38.0315 377.229 42.3355 374.59C46.9126 371.775 51.8335 369.562 56.9765 368.005L48.1215 346.96C40.3268 349.879 33.1302 354.195 26.8856 359.698C20.9306 364.986 15.8639 371.197 11.8791 378.093C7.86297 385.077 4.85866 392.596 2.95602 400.424C0.979234 408.46 -0.0131986 416.706 0.00058396 424.981C-0.0288811 433.431 1.04914 441.848 3.20714 450.018C5.26143 457.825 8.32252 465.332 12.3133 472.349C20.1704 486.112 31.5231 497.555 45.2228 505.521C52.214 509.553 59.7024 512.653 67.4977 514.742C75.6641 516.941 84.0881 518.039 92.5454 518.005C94.1771 518.005 95.7969 517.971 97.3949 517.891C93.6858 501.368 90.2929 484.78 87.2161 468.127Z" fill="#EDEDED"/>
<path d="M4.18774 87.6812L4.18774 117.83L74.6059 135.367C75.9186 126.694 77.3564 118.048 78.9194 109.429L4.18774 87.6812Z" fill="#EDEDED"/>
<path d="M68.6726 300.131C68.2161 288.069 67.8471 276.012 67.5656 263.957L4.18774 278.78L4.18774 328.621L69.2429 311.55C69.038 307.739 68.8437 303.939 68.6726 300.128" fill="#EDEDED"/>
<path d="M120.108 17.5612L121.147 12.7019C109.26 18.8807 98.9021 36.1987 94.7408 52.3844L94.7338 52.3767C94.3883 53.5966 94.1055 54.8333 93.8864 56.082C92.67 62.1767 92.428 67.9564 93.3954 72.7581C93.9147 76.9508 95.0379 81.0463 96.7303 84.9172C96.5998 85.4398 96.4644 85.9583 96.3347 86.4816C91.0783 109.803 86.7402 133.162 83.2404 156.814C80.224 180.525 78.3201 204.132 77.479 228.027C77.096 251.825 77.2552 275.589 77.6894 299.389C78.3231 323.15 79.4872 346.87 81.1815 370.548C83.2327 394.218 85.8096 417.815 88.9121 441.338C95.7314 488.35 105.029 534.969 116.767 581L118.995 580.502C115.199 559.257 111.832 537.971 108.893 516.645C111.834 516.145 114.736 515.523 117.585 514.743C133.046 510.649 147.131 502.494 158.378 491.122C163.944 485.522 168.744 479.21 172.654 472.35C176.645 465.333 179.706 457.826 181.759 450.018C183.914 441.848 184.988 433.431 184.955 424.982C184.959 415.165 183.529 405.401 180.71 395.998C177.917 386.591 173.435 377.771 167.484 369.969L181.394 361.354L181.394 347.204L95.8878 347.204C95.6942 332.991 95.6942 318.775 95.8878 304.557L181.392 282.113L181.392 237.439L101.061 217.27C101.512 211.999 101.961 206.728 102.41 201.457L181.392 184.035L181.392 139.246L109.519 118.334C110.408 108.597 111.316 98.8614 112.245 89.1269L112.4 87.5423C117.038 86.5562 121.321 84.3286 124.792 81.0976C131.456 74.9609 134.572 67.111 135.731 58.3408C136.108 55.4836 136.313 52.6026 136.597 49.7342C136.371 49.6673 136.145 49.6011 135.919 49.5356L133.021 56.0308C133.886 45.1239 135.498 34.4007 138.773 23.9926C141.498 15.3304 145.227 7.22668 152.16 1.0058C152.236 0.935666 152.189 0.735653 152.218 0.34216C140.265 3.83703 128.991 8.30212 120.108 17.5605L120.108 17.5612ZM160.532 400.608C162.951 403.644 164.16 407.87 164.16 413.286C164.16 423.213 162.049 431.665 157.827 438.642C153.692 445.518 148.027 451.348 141.271 455.678C134.208 460.176 126.422 463.423 118.256 465.275C113.214 466.466 108.097 467.31 102.94 467.8C101.968 458.575 101.054 449.342 100.255 440.091C99.1079 425.415 98.1752 410.737 97.4564 396.058L147.799 396.058C153.87 396.058 158.114 397.587 160.534 400.61L160.532 400.608ZM97.9874 256.851C98.289 252.217 98.6138 247.584 98.9618 242.952L129.951 249.378L97.9874 256.851ZM133.147 149.953L106.221 155.915C106.572 151.777 106.94 147.648 107.296 143.512L133.147 149.953Z" fill="#626262"/>
<path d="M50.0887 206.141L67.977 202.252C68.6168 189.406 69.5755 176.571 70.8532 163.747L4.18811 178.502L4.18811 223.291L67.1436 236.346C67.1205 233.82 67.1093 231.313 67.098 228.791C67.1963 222.711 67.366 216.649 67.6073 210.606L50.0887 206.141Z" fill="#EDEDED"/>
</g>
</svg>
