<svg width="20" height="20" viewBox="0 0 20 20" fill="none" xmlns="http://www.w3.org/2000/svg">
<path d="M15.8355 14.1646C14.4604 14.1646 13.3417 15.2833 13.3417 16.6583C13.3417 18.0334 14.4605 19.1521 15.8355 19.1521C17.2105 19.1521 18.3293 18.0334 18.3293 16.6583C18.3293 15.2833 17.2105 14.1646 15.8355 14.1646ZM15.8355 17.6558C15.2854 17.6558 14.838 17.2084 14.838 16.6583C14.838 16.1082 15.2854 15.6608 15.8355 15.6608C16.3856 15.6608 16.833 16.1082 16.833 16.6583C16.833 17.2084 16.3856 17.6558 15.8355 17.6558Z" fill="#545454"/>
<path d="M19.841 4.52619C19.6994 4.3449 19.4821 4.23916 19.252 4.23916H4.618L3.94467 1.42196C3.86412 1.08531 3.56311 0.847656 3.21697 0.847656H0.748129C0.334924 0.847617 0 1.18254 0 1.59575C0 2.00895 0.334924 2.34388 0.748129 2.34388H2.62646L5.05788 12.5175C5.13843 12.8544 5.43945 13.0918 5.78558 13.0918H17.4315C17.7755 13.0918 18.0752 12.8574 18.1577 12.5237L19.9782 5.16706C20.0333 4.94366 19.9827 4.70748 19.841 4.52619ZM16.8462 11.5956H6.37609L4.97558 5.73542H18.2961L16.8462 11.5956Z" fill="#545454"/>
<path d="M6.78307 14.1646C5.40798 14.1646 4.28931 15.2833 4.28931 16.6583C4.28931 18.0334 5.40802 19.1521 6.78307 19.1521C8.15812 19.1521 9.27684 18.0334 9.27684 16.6583C9.27684 15.2833 8.15812 14.1646 6.78307 14.1646ZM6.78307 17.6558C6.23295 17.6558 5.78557 17.2084 5.78557 16.6583C5.78557 16.1082 6.23295 15.6608 6.78307 15.6608C7.33319 15.6608 7.78058 16.1082 7.78058 16.6583C7.78058 17.2084 7.33319 17.6558 6.78307 17.6558Z" fill="#545454"/>
</svg>
