<svg width="63" height="32" viewBox="0 0 63 32" fill="none" xmlns="http://www.w3.org/2000/svg">
<path d="M51.6743 14.3642L48.9615 11.4004C48.9615 11.4004 60.2825 2.15754 61.1462 1.70512C61.1462 1.70512 62.584 1.46125 62.5326 2.90184C61.3668 4.61428 51.6743 14.3642 51.6743 14.3642Z" fill="white"/>
<path d="M48.2626 11.9353C46.7171 11.4602 44.2053 13.9395 43.2357 15.7065L44.228 15.8011C44.228 15.8011 43.3675 16.9906 42.4537 16.9719C42.2838 16.9685 42.0938 17.2281 42.0938 17.2281C42.0938 17.2281 43.7688 18.3656 45.5043 18.5311L45.5049 18.5312C47.4104 18.713 49.8219 18.1385 50.9176 14.9517C50.9144 14.9542 50.9208 14.9492 50.9176 14.9517L48.264 11.9341C48.264 11.9341 49.8081 12.4103 48.2626 11.9353Z" fill="white"/>
<path d="M42.6781 21.6201L40.9993 20C40.9993 20 0.611668 20.511 2.32091 24.8172C3.09222 26.7604 37.4993 24 36.8923 27.6081C36.2854 31.2163 28.7138 32 28.7138 32H20.9995C20.9995 32 34.6423 29.7745 34.6423 27.6081C34.6423 25.4418 1.49926 29.5 0.0709107 25.2163C-1.39459 20.8211 42.6781 21.6201 42.6781 21.6201Z" fill="white"/>
</svg>
